# xmcd
#
# Track frame offsets:
#  150
#  17581
#  33298
#  50847
#  64713
#  78724
#  90415
#  104414
#  117931
#  135795
#  145368
#  160143
#  176262
#  198012
#  216353
#  230097
#
# Disc length: 3299 seconds
#
# Revision: 0
# Processed by: cddbd v1.5.2PL0 Copyright (c) Steve Scherf et al.
# Submitted via: Collectorz.com_Music_Collector 6.11
#
DISCID=d40ce110
DTITLE=Willie Nelson - 16 Biggest Hits Volume II
DYEAR=2007
DGENRE=
TTITLE0=All Of Me
TTITLE1=Me And Paul
TTITLE2=I'd Have To Be Crazy
TTITLE3=Faded Love (Duet With Ray Price)
TTITLE4=Heartbreak Hotel (Duet with Leon Russell)
TTITLE5=Higwayman (with Waylon Jennings, Johnny Cash and Kris Kristoffersen)
TTITLE6=Mona Lisa
TTITLE7=There You Are
TTITLE8=Good Hearted Woman (Waylon and Willie)
TTITLE9=Something to brag about (Duet with Mary Kay Place)
TTITLE10=Sweet Memories
TTITLE11=Let It Be Me
TTITLE12=Panco and Lefty (Duet With Merle Haggard)
TTITLE13=Help Me Make It Through The Night
TTITLE14=I Love You A Thousand Ways
TTITLE15=Without A Song
EXTD=
EXTT0=
EXTT1=
EXTT2=
EXTT3=
EXTT4=
EXTT5=
EXTT6=
EXTT7=
EXTT8=
EXTT9=
EXTT10=
EXTT11=
EXTT12=
EXTT13=
EXTT14=
EXTT15=
PLAYORDER=
